<mxfile host="app.diagrams.net" modified="2022-02-24T17:23:21.755Z" agent="5.0 (X11; Linux x86_64) AppleWebKit/537.36 (KHTML, like Gecko) Chrome/98.0.4758.102 Safari/537.36" etag="K9iMy_V1Em1lnz0fd6JP" version="16.6.2" type="github">
  <diagram id="0UxEQfN1TU0rBIpvZJjx" name="Page-1">
    <mxGraphModel dx="1422" dy="811" grid="1" gridSize="10" guides="1" tooltips="1" connect="1" arrows="1" fold="1" page="1" pageScale="1" pageWidth="850" pageHeight="1100" math="0" shadow="0">
      <root>
        <mxCell id="0" />
        <mxCell id="1" parent="0" />
        <mxCell id="Qwx8PpzrOdhlezLCd6MP-1" value="" style="ellipse;whiteSpace=wrap;html=1;" vertex="1" parent="1">
          <mxGeometry x="165" y="180" width="120" height="80" as="geometry" />
        </mxCell>
        <mxCell id="Qwx8PpzrOdhlezLCd6MP-2" value="Actor" style="shape=umlActor;verticalLabelPosition=bottom;verticalAlign=top;html=1;outlineConnect=0;" vertex="1" parent="1">
          <mxGeometry x="210" y="430" width="30" height="60" as="geometry" />
        </mxCell>
        <mxCell id="Qwx8PpzrOdhlezLCd6MP-3" value="" style="endArrow=classic;html=1;rounded=0;" edge="1" parent="1">
          <mxGeometry width="50" height="50" relative="1" as="geometry">
            <mxPoint x="220" y="280" as="sourcePoint" />
            <mxPoint x="220" y="400" as="targetPoint" />
          </mxGeometry>
        </mxCell>
      </root>
    </mxGraphModel>
  </diagram>
</mxfile>
